<?xml version="1.0" encoding="UTF-8" standalone="no"?>
<!-- Created with Inkscape (http://www.inkscape.org/) -->

<svg
   xmlns:dc="http://purl.org/dc/elements/1.1/"
   xmlns:cc="http://creativecommons.org/ns#"
   xmlns:rdf="http://www.w3.org/1999/02/22-rdf-syntax-ns#"
   xmlns:svg="http://www.w3.org/2000/svg"
   xmlns="http://www.w3.org/2000/svg"
   xmlns:sodipodi="http://sodipodi.sourceforge.net/DTD/sodipodi-0.dtd"
   xmlns:inkscape="http://www.inkscape.org/namespaces/inkscape"
   width="500"
   height="350"
   viewBox="0 0 132.29166 92.604168"
   version="1.1"
   id="svg8"
   inkscape:version="0.92.2 2405546, 2018-03-11"
   sodipodi:docname="LOGO-DC.svg">
  <defs
     id="defs2" />
  <sodipodi:namedview
     id="base"
     pagecolor="#ffffff"
     bordercolor="#666666"
     borderopacity="1.0"
     inkscape:pageopacity="0.0"
     inkscape:pageshadow="2"
     inkscape:zoom="0.49497475"
     inkscape:cx="318.17159"
     inkscape:cy="-221.06052"
     inkscape:document-units="mm"
     inkscape:current-layer="g68"
     showgrid="false"
     inkscape:window-width="1366"
     inkscape:window-height="747"
     inkscape:window-x="0"
     inkscape:window-y="21"
     inkscape:window-maximized="1"
     units="px" />
  <metadata
     id="metadata5">
    <rdf:RDF>
      <cc:Work
         rdf:about="">
        <dc:format>image/svg+xml</dc:format>
        <dc:type
           rdf:resource="http://purl.org/dc/dcmitype/StillImage" />
        <dc:title></dc:title>
      </cc:Work>
    </rdf:RDF>
  </metadata>
  <g
     inkscape:label="Camada 1"
     inkscape:groupmode="layer"
     id="layer1"
     transform="translate(0,-204.3958)">
    <g
       id="g68"
       transform="matrix(1.112005,0,0,1.112005,-6.6091826,-31.415797)">
      <g
         id="g3925"
         transform="matrix(0.676033,0,0,0.676033,-150.35125,161.70873)">
        <path
           inkscape:connector-curvature="0"
           id="path72"
           d="m 291.01351,191.7023 c -6.66127,-0.29653 -13.76788,-2.68988 -21.07245,-7.09676 -11.66431,-7.03711 -23.63666,-19.49764 -35.29205,-36.73109 l -1.0161,-1.50238 0.0958,-0.093 c 0.16595,-0.1611 30.7002,-24.21842 30.71718,-24.20144 0.009,0.009 -0.0653,10.59275 -0.16493,23.51967 -0.0996,12.92694 -0.18153,23.96158 -0.18206,24.52144 l -9.7e-4,1.01793 13.20664,-8.5e-4 c 15.16427,-0.001 15.90701,-0.0166 18.93451,-0.39833 2.62526,-0.331 5.40804,-0.94929 6.94238,-1.54248 l 0.2436,-0.0942 h -1.69778 -1.69779 l -0.74031,-0.0948 c -10.19085,-1.30576 -20.33126,-9.39326 -26.96496,-21.50644 -3.8104,-6.95781 -6.50153,-15.44702 -7.6691,-24.19233 -0.0738,-0.55259 -0.14405,-1.0761 -0.15616,-1.16335 -0.0335,-0.24126 0.13872,-16.01793 0.17523,-16.05344 0.0538,-0.0523 29.52837,0.15455 30.38464,0.21321 5.35078,0.36657 9.48623,1.38999 13.16697,3.2585 7.48256,3.79847 11.74437,10.71764 12.58301,20.42883 0.0437,0.50595 0.0918,0.93229 0.10697,0.94743 0.0151,0.0151 0.0275,-0.0227 0.0275,-0.0841 0,-0.17129 0.30371,-1.63003 0.53623,-2.57557 3.35091,-13.62645 13.46664,-22.80381 26.77851,-24.29446 3.398,-0.3805 8.36285,-0.26247 12.18619,0.28972 1.85418,0.26779 4.60051,0.88775 4.60051,1.03852 0,0.0609 -0.15869,0.45024 -2.9479,7.23372 -1.23771,3.01016 -2.28509,5.55978 -2.32751,5.66581 l -0.0771,0.1928 -0.27535,-0.12177 c -1.4164,-0.6264 -3.35313,-0.94324 -5.79407,-0.9479 l -1.61282,-0.003 -0.60811,0.095 c -7.00371,1.0938 -12.28266,8.67878 -13.01223,18.69639 -0.0813,1.11697 -0.0353,4.40421 0.0793,5.66509 0.30868,3.395 0.9416,5.88409 2.09084,8.22275 0.54988,1.11899 1.64192,2.85494 1.76935,2.81265 0.0686,-0.0228 1.83712,-2.97443 2.92092,-4.87495 4.28695,-7.51746 9.30328,-17.69934 13.74255,-27.89389 0.3736,-0.85796 0.68868,-1.57184 0.70018,-1.58638 0.0293,-0.0371 0.99376,0.4806 1.61471,0.86672 2.60241,1.61822 4.11525,3.61634 5.08906,6.72148 0.10946,0.349 0.21712,0.65537 0.23926,0.68082 0.0229,0.0264 3.41914,0.0293 7.90152,0.007 l 7.86127,-0.0396 -0.0348,-0.37685 c -0.9574,-10.36727 -6.5982,-17.58474 -16.19408,-20.72049 -0.55915,-0.18272 -1.01701,-0.35601 -1.01748,-0.38509 -5.3e-4,-0.0291 0.45025,-1.18318 1.0016,-2.56465 l 1.00244,-2.51178 -0.43444,-0.427757 c -4.50668,-4.437418 -8.81358,-8.713811 -8.79485,-8.732546 0.0132,-0.01323 8.87189,-2.468578 19.6859,-5.456336 l 19.66184,-5.432284 0.0317,0.08314 c 0.0726,0.190285 8.36519,37.656053 8.34025,37.681003 -0.015,0.015 -2.10708,-0.7845 -4.64909,-1.77664 -2.54201,-0.99214 -4.67454,-1.82441 -4.73896,-1.84948 l -0.11713,-0.0456 -1.0187,1.14812 c -5.2712,5.94088 -11.06902,11.77109 -16.6718,16.76496 -9.23087,8.22766 -19.16222,15.39704 -29.64027,21.39713 -1.96648,1.12607 -3.81509,2.14323 -3.89516,2.14323 -0.16511,0 -1.90305,-1.81387 -2.39397,-2.49855 -0.21393,-0.29838 -0.21747,-0.29919 -0.34407,-0.0793 -0.18208,0.3162 -2.55351,3.86048 -3.29928,4.931 -0.49543,0.71118 -0.71207,1.06334 -0.66139,1.07512 0.0879,0.0205 5.07424,-2.45077 6.04416,-2.99552 l 0.65893,-0.37007 0.1607,0.13096 c 2.35787,1.9214 5.55741,2.71706 9.6482,2.39932 6.54102,-0.50805 9.79032,-3.37462 11.58542,-10.22079 l 0.12132,-0.4627 h 7.70906 7.70906 l -0.0231,0.17186 c -0.0127,0.0945 -0.0603,0.45741 -0.10582,0.80641 -0.98125,7.52787 -5.4762,14.70207 -11.90213,18.9965 -5.23158,3.49626 -11.24739,5.13138 -18.47373,5.02124 -5.71894,-0.0872 -10.47993,-1.12959 -14.7798,-3.23607 -1.41584,-0.69361 -3.28906,-1.81491 -4.08976,-2.4481 l -0.12381,-0.0979 0.41851,-0.49849 c 1.849,-2.20234 5.51129,-7.08879 5.33944,-7.1242 -0.0422,-0.009 -0.76381,0.30902 -1.6037,0.70601 -2.97493,1.40615 -7.71163,3.5137 -7.89703,3.5137 -0.0259,0 -0.27738,-0.26771 -0.55883,-0.5949 -3.44089,-4.00021 -5.84968,-9.24893 -6.98187,-15.21339 -0.10185,-0.53658 -0.19164,-0.98205 -0.19952,-0.98993 -0.008,-0.008 -0.10541,0.50253 -0.21674,1.13424 -1.81733,10.31208 -5.63072,16.28706 -12.53124,19.63452 -1.28405,0.6229 -3.55339,1.47627 -4.42001,1.66213 l -0.18507,0.0397 0.13219,0.0531 c 0.0824,0.0331 1.2384,0.0553 3.06701,0.059 l 2.93481,0.006 0.79319,-0.0952 c 4.57065,-0.5485 9.13077,-1.93795 17.02379,-5.18707 l 1.10709,-0.45572 0.71867,0.72738 c 0.78612,0.79564 1.63428,1.55794 2.47334,2.22296 l 0.54128,0.42901 -0.48615,0.5712 c -4.54169,5.33623 -11.79531,12.37476 -16.1694,15.68993 -7.32358,5.55063 -14.25788,8.30008 -21.81276,8.64875 -1.26899,0.0586 -1.4571,0.0584 -2.82905,-0.003 z m 0,-34.42341 c 7.75365,-0.49524 12.20114,-3.8944 13.69473,-10.46671 0.51945,-2.28579 0.83678,-6.15146 0.77701,-9.46542 -0.17394,-9.64322 -3.19725,-15.30546 -9.18918,-17.21003 -0.71878,-0.22847 -1.85832,-0.46405 -2.87655,-0.59468 l -0.74031,-0.095 -5.52322,0.0149 c -3.03778,0.008 -5.52775,0.0201 -5.53328,0.0264 -0.005,0.006 -0.0247,3.79501 -0.0426,8.41932 -0.0179,4.6243 -0.0442,9.34776 -0.0585,10.49656 -0.0143,1.14881 -0.0409,5.89371 -0.0592,10.54423 l -0.0333,8.45549 4.3824,-0.0364 c 2.41032,-0.02 4.75123,-0.06 5.20203,-0.0888 z"
           style="fill:#9c9c9c;stroke-width:0.05287942" />
        <path
           inkscape:connector-curvature="0"
           id="path70"
           d="m 291.01345,191.70283 c -6.66126,-0.29653 -13.76787,-2.68988 -21.07245,-7.09676 -11.6643,-7.03711 -23.63666,-19.49764 -35.29205,-36.73109 l -1.01609,-1.50238 0.0958,-0.093 c 0.16594,-0.1611 30.7002,-24.21842 30.71717,-24.20144 0.009,0.009 -0.0653,10.59275 -0.16492,23.51967 -0.0996,12.92694 -0.18154,23.96158 -0.18207,24.52144 l -9.7e-4,1.01793 13.20664,-8.5e-4 c 7.67532,-5.3e-4 13.77139,-0.0226 14.55506,-0.0528 4.17316,-0.16071 7.8672,-0.74716 10.81384,-1.71675 l 0.84607,-0.2784 1.08403,0.0498 c 0.59621,0.0274 2.01206,0.038 3.14632,0.0237 l 2.0623,-0.0261 0.87333,-0.10676 c 4.37785,-0.53517 9.02774,-1.96381 16.78502,-5.15705 l 1.10709,-0.45573 0.71867,0.72738 c 0.78612,0.79564 1.63428,1.55795 2.47334,2.22297 l 0.54128,0.429 -0.48615,0.57121 c -4.54169,5.33623 -11.79531,12.37476 -16.1694,15.68993 -7.32358,5.55062 -14.25789,8.30007 -21.81276,8.64875 -1.26899,0.0586 -1.4571,0.0584 -2.82905,-0.003 z m 53.24125,-36.63718 c -0.60079,-0.57047 -1.30466,-1.34824 -1.71912,-1.89963 l -0.21277,-0.28306 0.6187,-1.01248 c 4.8239,-7.89429 10.74732,-19.63512 16.051,-31.81475 0.3736,-0.85797 0.68868,-1.57184 0.70018,-1.58639 0.0293,-0.0371 0.99376,0.4806 1.61471,0.86672 2.60241,1.61823 4.11525,3.61634 5.08906,6.72148 0.10946,0.349 0.21712,0.65537 0.23926,0.68082 0.0229,0.0264 3.41914,0.0293 7.90152,0.007 l 7.86127,-0.0396 -0.0348,-0.37686 c -0.9574,-10.36727 -6.5982,-17.58474 -16.19408,-20.72049 -0.55915,-0.18271 -1.01701,-0.35601 -1.01748,-0.38509 -5.3e-4,-0.0291 0.45025,-1.18318 1.0016,-2.56465 l 1.00244,-2.51177 -0.43444,-0.427767 c -4.50668,-4.43742 -8.81358,-8.713813 -8.79485,-8.732548 0.0132,-0.01323 8.87189,-2.468578 19.6859,-5.456336 l 19.66184,-5.432286 0.0317,0.08314 c 0.0726,0.190285 8.36519,37.656057 8.34025,37.681007 -0.015,0.015 -2.10708,-0.7845 -4.64909,-1.77664 -2.54201,-0.99214 -4.67454,-1.82441 -4.73896,-1.84948 l -0.11713,-0.0456 -1.0187,1.14812 c -5.2712,5.94088 -11.06902,11.77109 -16.6718,16.76496 -9.23087,8.22766 -19.16222,15.39704 -29.64027,21.39713 -1.96648,1.12607 -3.81509,2.14323 -3.89516,2.14323 -0.0287,0 -0.32605,-0.26007 -0.6608,-0.57792 z"
           style="fill:#4d94dd;stroke-width:0.05287942" />
      </g>
    </g>
  </g>
</svg>
